<mxfile host="app.diagrams.net" agent="Mozilla/5.0 (X11; Linux x86_64; rv:139.0) Gecko/20100101 Firefox/139.0" version="27.1.4">
  <diagram name="Page-1" id="iwOYrUfvdi77wi1MdMZB">
    <mxGraphModel dx="1075" dy="379" grid="1" gridSize="10" guides="1" tooltips="1" connect="1" arrows="1" fold="1" page="1" pageScale="1" pageWidth="850" pageHeight="1100" math="0" shadow="0">
      <root>
        <mxCell id="0" />
        <mxCell id="1" parent="0" />
        <mxCell id="UyNAgw4F-PtCwiM6E-Qg-6" value="&lt;b&gt;&lt;font style=&quot;font-size: 11px;&quot;&gt;TRAIN&lt;/font&gt;&lt;/b&gt;" style="rounded=0;whiteSpace=wrap;html=1;fillColor=#dae8fc;strokeColor=#6c8ebf;" parent="1" vertex="1">
          <mxGeometry x="120" y="170" width="319" height="30" as="geometry" />
        </mxCell>
        <mxCell id="UyNAgw4F-PtCwiM6E-Qg-9" value="&lt;b&gt;DATASET&lt;/b&gt;" style="rounded=0;whiteSpace=wrap;html=1;fillColor=#f5f5f5;fontColor=#333333;strokeColor=#666666;" parent="1" vertex="1">
          <mxGeometry x="119.83" y="120" width="400" height="30" as="geometry" />
        </mxCell>
        <mxCell id="UyNAgw4F-PtCwiM6E-Qg-10" value="&lt;b&gt;&lt;font style=&quot;font-size: 11px;&quot; face=&quot;Helvetica&quot;&gt;TEST&lt;/font&gt;&lt;/b&gt;" style="rounded=0;whiteSpace=wrap;html=1;fillColor=#f8cecc;strokeColor=#b85450;" parent="1" vertex="1">
          <mxGeometry x="440.83" y="170" width="79" height="30" as="geometry" />
        </mxCell>
        <mxCell id="UyNAgw4F-PtCwiM6E-Qg-16" value="" style="endArrow=none;dashed=1;html=1;rounded=0;entryX=0;entryY=1.082;entryDx=0;entryDy=0;entryPerimeter=0;exitX=0;exitY=0;exitDx=0;exitDy=0;" parent="1" edge="1">
          <mxGeometry width="50" height="50" relative="1" as="geometry">
            <mxPoint x="439.8300000000001" y="167.53999999999996" as="sourcePoint" />
            <mxPoint x="439.83" y="150" as="targetPoint" />
          </mxGeometry>
        </mxCell>
        <mxCell id="UyNAgw4F-PtCwiM6E-Qg-17" value="" style="endArrow=none;dashed=1;html=1;rounded=0;entryX=0;entryY=1.082;entryDx=0;entryDy=0;entryPerimeter=0;exitX=0;exitY=0;exitDx=0;exitDy=0;" parent="1" edge="1">
          <mxGeometry width="50" height="50" relative="1" as="geometry">
            <mxPoint x="119.83000000000011" y="167.53999999999996" as="sourcePoint" />
            <mxPoint x="119.83" y="150" as="targetPoint" />
          </mxGeometry>
        </mxCell>
        <mxCell id="UyNAgw4F-PtCwiM6E-Qg-18" value="" style="endArrow=none;dashed=1;html=1;rounded=0;entryX=0;entryY=1.082;entryDx=0;entryDy=0;entryPerimeter=0;exitX=0;exitY=0;exitDx=0;exitDy=0;" parent="1" edge="1">
          <mxGeometry width="50" height="50" relative="1" as="geometry">
            <mxPoint x="519.8300000000002" y="167.53999999999996" as="sourcePoint" />
            <mxPoint x="519.83" y="150" as="targetPoint" />
          </mxGeometry>
        </mxCell>
        <mxCell id="UyNAgw4F-PtCwiM6E-Qg-20" value="20%" style="text;html=1;align=center;verticalAlign=middle;whiteSpace=wrap;rounded=0;" parent="1" vertex="1">
          <mxGeometry x="449.83" y="150" width="60" height="20" as="geometry" />
        </mxCell>
        <mxCell id="UyNAgw4F-PtCwiM6E-Qg-21" value="80%" style="text;html=1;align=center;verticalAlign=middle;whiteSpace=wrap;rounded=0;" parent="1" vertex="1">
          <mxGeometry x="129.83" y="150" width="300.17" height="20" as="geometry" />
        </mxCell>
        <mxCell id="UyNAgw4F-PtCwiM6E-Qg-24" value="&lt;b&gt;&lt;font style=&quot;font-size: 10px;&quot;&gt;TRAIN&lt;/font&gt;&lt;/b&gt;" style="rounded=0;whiteSpace=wrap;html=1;fillColor=#dae8fc;strokeColor=#6c8ebf;" parent="1" vertex="1">
          <mxGeometry x="120" y="380" width="254" height="30" as="geometry" />
        </mxCell>
        <mxCell id="UyNAgw4F-PtCwiM6E-Qg-25" value="&lt;b&gt;&lt;font style=&quot;font-size: 9px;&quot;&gt;VALIDATION&lt;/font&gt;&lt;/b&gt;" style="rounded=0;whiteSpace=wrap;html=1;fillColor=#d5e8d4;strokeColor=#82b366;align=center;" parent="1" vertex="1">
          <mxGeometry x="312.17" y="430" width="62.83" height="30" as="geometry" />
        </mxCell>
        <mxCell id="UyNAgw4F-PtCwiM6E-Qg-26" value="&lt;b&gt;&lt;font style=&quot;font-size: 9px;&quot; face=&quot;Helvetica&quot;&gt;CALIBRATION&lt;/font&gt;&lt;/b&gt;" style="rounded=0;whiteSpace=wrap;html=1;fillColor=#e1d5e7;strokeColor=#9673a6;" parent="1" vertex="1">
          <mxGeometry x="376" y="380" width="64.47" height="30" as="geometry" />
        </mxCell>
        <mxCell id="UyNAgw4F-PtCwiM6E-Qg-29" value="" style="endArrow=none;dashed=1;html=1;rounded=0;entryX=0;entryY=1.082;entryDx=0;entryDy=0;entryPerimeter=0;exitX=0;exitY=0;exitDx=0;exitDy=0;" parent="1" edge="1">
          <mxGeometry width="50" height="50" relative="1" as="geometry">
            <mxPoint x="311.17000000000013" y="427.53999999999996" as="sourcePoint" />
            <mxPoint x="311.17" y="410" as="targetPoint" />
          </mxGeometry>
        </mxCell>
        <mxCell id="UyNAgw4F-PtCwiM6E-Qg-30" value="" style="endArrow=none;dashed=1;html=1;rounded=0;entryX=0;entryY=1.082;entryDx=0;entryDy=0;entryPerimeter=0;exitX=0;exitY=0;exitDx=0;exitDy=0;" parent="1" edge="1">
          <mxGeometry width="50" height="50" relative="1" as="geometry">
            <mxPoint x="440.17000000000013" y="377.53999999999996" as="sourcePoint" />
            <mxPoint x="440.17" y="360" as="targetPoint" />
          </mxGeometry>
        </mxCell>
        <mxCell id="UyNAgw4F-PtCwiM6E-Qg-31" value="" style="endArrow=none;dashed=1;html=1;rounded=0;entryX=0;entryY=1.082;entryDx=0;entryDy=0;entryPerimeter=0;exitX=0;exitY=0;exitDx=0;exitDy=0;" parent="1" edge="1">
          <mxGeometry width="50" height="50" relative="1" as="geometry">
            <mxPoint x="120.17000000000012" y="377.53999999999996" as="sourcePoint" />
            <mxPoint x="120.17" y="360" as="targetPoint" />
          </mxGeometry>
        </mxCell>
        <mxCell id="UyNAgw4F-PtCwiM6E-Qg-33" value="" style="endArrow=none;dashed=1;html=1;rounded=0;entryX=0;entryY=1.082;entryDx=0;entryDy=0;entryPerimeter=0;exitX=0;exitY=0;exitDx=0;exitDy=0;" parent="1" edge="1">
          <mxGeometry width="50" height="50" relative="1" as="geometry">
            <mxPoint x="375.17000000000013" y="377.53999999999996" as="sourcePoint" />
            <mxPoint x="375.17" y="360" as="targetPoint" />
          </mxGeometry>
        </mxCell>
        <mxCell id="UyNAgw4F-PtCwiM6E-Qg-35" value="90%" style="text;html=1;align=center;verticalAlign=middle;whiteSpace=wrap;rounded=0;" parent="1" vertex="1">
          <mxGeometry x="133.17" y="360" width="229.83" height="20" as="geometry" />
        </mxCell>
        <mxCell id="UyNAgw4F-PtCwiM6E-Qg-36" value="20%" style="text;html=1;align=center;verticalAlign=middle;whiteSpace=wrap;rounded=0;" parent="1" vertex="1">
          <mxGeometry x="319" y="410" width="50.17" height="20" as="geometry" />
        </mxCell>
        <mxCell id="UyNAgw4F-PtCwiM6E-Qg-37" value="10%" style="text;html=1;align=center;verticalAlign=middle;whiteSpace=wrap;rounded=0;" parent="1" vertex="1">
          <mxGeometry x="383" y="360" width="50" height="20" as="geometry" />
        </mxCell>
        <mxCell id="UyNAgw4F-PtCwiM6E-Qg-38" value="&lt;b&gt;&lt;font style=&quot;font-size: 10px;&quot;&gt;TRAIN&lt;/font&gt;&lt;/b&gt;" style="rounded=0;whiteSpace=wrap;html=1;fillColor=#dae8fc;strokeColor=#6c8ebf;" parent="1" vertex="1">
          <mxGeometry x="119.67" y="220" width="239.33" height="30" as="geometry" />
        </mxCell>
        <mxCell id="UyNAgw4F-PtCwiM6E-Qg-39" value="&lt;b&gt;&lt;font style=&quot;font-size: 10px;&quot;&gt;VALIDATION&lt;/font&gt;&lt;/b&gt;" style="rounded=0;whiteSpace=wrap;html=1;fillColor=#d5e8d4;strokeColor=#82b366;align=center;" parent="1" vertex="1">
          <mxGeometry x="361" y="220" width="79" height="30" as="geometry" />
        </mxCell>
        <mxCell id="UyNAgw4F-PtCwiM6E-Qg-45" value="80%" style="text;html=1;align=center;verticalAlign=middle;whiteSpace=wrap;rounded=0;" parent="1" vertex="1">
          <mxGeometry x="130.67" y="200" width="219.33" height="20" as="geometry" />
        </mxCell>
        <mxCell id="UyNAgw4F-PtCwiM6E-Qg-47" value="20%" style="text;html=1;align=center;verticalAlign=middle;whiteSpace=wrap;rounded=0;" parent="1" vertex="1">
          <mxGeometry x="370" y="200" width="60" height="20" as="geometry" />
        </mxCell>
        <mxCell id="UyNAgw4F-PtCwiM6E-Qg-48" value="" style="endArrow=none;dashed=1;html=1;rounded=0;entryX=0;entryY=1.082;entryDx=0;entryDy=0;entryPerimeter=0;exitX=0;exitY=0;exitDx=0;exitDy=0;" parent="1" edge="1">
          <mxGeometry width="50" height="50" relative="1" as="geometry">
            <mxPoint x="440.0000000000001" y="217.53999999999996" as="sourcePoint" />
            <mxPoint x="440" y="200" as="targetPoint" />
          </mxGeometry>
        </mxCell>
        <mxCell id="UyNAgw4F-PtCwiM6E-Qg-49" value="" style="endArrow=none;dashed=1;html=1;rounded=0;entryX=0;entryY=1.082;entryDx=0;entryDy=0;entryPerimeter=0;exitX=0;exitY=0;exitDx=0;exitDy=0;" parent="1" edge="1">
          <mxGeometry width="50" height="50" relative="1" as="geometry">
            <mxPoint x="360.0000000000001" y="217.53999999999996" as="sourcePoint" />
            <mxPoint x="360" y="200" as="targetPoint" />
          </mxGeometry>
        </mxCell>
        <mxCell id="UyNAgw4F-PtCwiM6E-Qg-50" value="" style="endArrow=none;dashed=1;html=1;rounded=0;entryX=0;entryY=1.082;entryDx=0;entryDy=0;entryPerimeter=0;exitX=0;exitY=0;exitDx=0;exitDy=0;" parent="1" edge="1">
          <mxGeometry width="50" height="50" relative="1" as="geometry">
            <mxPoint x="120.00000000000011" y="217.53999999999996" as="sourcePoint" />
            <mxPoint x="120" y="200" as="targetPoint" />
          </mxGeometry>
        </mxCell>
        <mxCell id="UyNAgw4F-PtCwiM6E-Qg-51" value="&lt;b&gt;TRAIN&lt;/b&gt;" style="rounded=0;whiteSpace=wrap;html=1;fillColor=#dae8fc;strokeColor=#6c8ebf;" parent="1" vertex="1">
          <mxGeometry x="120.17" y="330" width="319" height="30" as="geometry" />
        </mxCell>
        <mxCell id="UyNAgw4F-PtCwiM6E-Qg-52" value="&lt;b&gt;DATASET&lt;/b&gt;" style="rounded=0;whiteSpace=wrap;html=1;strokeColor=#666666;fillColor=#f5f5f5;fontColor=#333333;" parent="1" vertex="1">
          <mxGeometry x="119.99999999999999" y="280" width="400" height="30" as="geometry" />
        </mxCell>
        <mxCell id="UyNAgw4F-PtCwiM6E-Qg-53" value="&lt;b&gt;&lt;font face=&quot;Helvetica&quot;&gt;TEST&lt;/font&gt;&lt;/b&gt;" style="rounded=0;whiteSpace=wrap;html=1;fillColor=#f8cecc;strokeColor=#b85450;" parent="1" vertex="1">
          <mxGeometry x="441" y="330" width="79" height="30" as="geometry" />
        </mxCell>
        <mxCell id="UyNAgw4F-PtCwiM6E-Qg-54" value="" style="endArrow=none;dashed=1;html=1;rounded=0;entryX=0;entryY=1.082;entryDx=0;entryDy=0;entryPerimeter=0;exitX=0;exitY=0;exitDx=0;exitDy=0;" parent="1" edge="1">
          <mxGeometry width="50" height="50" relative="1" as="geometry">
            <mxPoint x="440.0000000000001" y="327.53999999999996" as="sourcePoint" />
            <mxPoint x="440" y="310" as="targetPoint" />
          </mxGeometry>
        </mxCell>
        <mxCell id="UyNAgw4F-PtCwiM6E-Qg-55" value="" style="endArrow=none;dashed=1;html=1;rounded=0;entryX=0;entryY=1.082;entryDx=0;entryDy=0;entryPerimeter=0;exitX=0;exitY=0;exitDx=0;exitDy=0;" parent="1" edge="1">
          <mxGeometry width="50" height="50" relative="1" as="geometry">
            <mxPoint x="120.0000000000001" y="327.53999999999996" as="sourcePoint" />
            <mxPoint x="119.99999999999999" y="310" as="targetPoint" />
          </mxGeometry>
        </mxCell>
        <mxCell id="UyNAgw4F-PtCwiM6E-Qg-56" value="" style="endArrow=none;dashed=1;html=1;rounded=0;entryX=0;entryY=1.082;entryDx=0;entryDy=0;entryPerimeter=0;exitX=0;exitY=0;exitDx=0;exitDy=0;" parent="1" edge="1">
          <mxGeometry width="50" height="50" relative="1" as="geometry">
            <mxPoint x="520.0000000000001" y="327.53999999999996" as="sourcePoint" />
            <mxPoint x="520.0000000000001" y="310" as="targetPoint" />
          </mxGeometry>
        </mxCell>
        <mxCell id="UyNAgw4F-PtCwiM6E-Qg-57" value="20%" style="text;html=1;align=center;verticalAlign=middle;whiteSpace=wrap;rounded=0;" parent="1" vertex="1">
          <mxGeometry x="450" y="310" width="60" height="20" as="geometry" />
        </mxCell>
        <mxCell id="UyNAgw4F-PtCwiM6E-Qg-58" value="80%" style="text;html=1;align=center;verticalAlign=middle;whiteSpace=wrap;rounded=0;" parent="1" vertex="1">
          <mxGeometry x="129.99999999999997" y="310" width="300.17" height="20" as="geometry" />
        </mxCell>
        <mxCell id="UyNAgw4F-PtCwiM6E-Qg-87" value="&lt;b&gt;&lt;font style=&quot;font-size: 10px;&quot;&gt;TRAIN&lt;/font&gt;&lt;/b&gt;" style="rounded=0;whiteSpace=wrap;html=1;fillColor=#dae8fc;strokeColor=#6c8ebf;" parent="1" vertex="1">
          <mxGeometry x="120.17" y="430" width="189.83" height="30" as="geometry" />
        </mxCell>
        <mxCell id="UyNAgw4F-PtCwiM6E-Qg-88" value="" style="endArrow=none;dashed=1;html=1;rounded=0;entryX=0;entryY=1.082;entryDx=0;entryDy=0;entryPerimeter=0;exitX=0;exitY=0;exitDx=0;exitDy=0;" parent="1" edge="1">
          <mxGeometry width="50" height="50" relative="1" as="geometry">
            <mxPoint x="375.0000000000001" y="427.99999999999994" as="sourcePoint" />
            <mxPoint x="375" y="410.46" as="targetPoint" />
          </mxGeometry>
        </mxCell>
        <mxCell id="UyNAgw4F-PtCwiM6E-Qg-90" value="" style="endArrow=none;dashed=1;html=1;rounded=0;entryX=0;entryY=1.082;entryDx=0;entryDy=0;entryPerimeter=0;exitX=0;exitY=0;exitDx=0;exitDy=0;" parent="1" edge="1">
          <mxGeometry width="50" height="50" relative="1" as="geometry">
            <mxPoint x="120.00000000000011" y="427.53999999999996" as="sourcePoint" />
            <mxPoint x="120" y="410" as="targetPoint" />
          </mxGeometry>
        </mxCell>
        <mxCell id="UyNAgw4F-PtCwiM6E-Qg-91" value="80%" style="text;html=1;align=center;verticalAlign=middle;whiteSpace=wrap;rounded=0;" parent="1" vertex="1">
          <mxGeometry x="199" y="410" width="50.17" height="20" as="geometry" />
        </mxCell>
        <mxCell id="lEyhMA-HNILpENWTjf7T-1" value="&lt;b&gt;&lt;font face=&quot;Helvetica&quot;&gt;TEST&lt;/font&gt;&lt;/b&gt;" style="rounded=0;whiteSpace=wrap;html=1;fillColor=#f8cecc;strokeColor=#b85450;" vertex="1" parent="1">
          <mxGeometry x="590.5" y="550" width="79" height="30" as="geometry" />
        </mxCell>
        <mxCell id="lEyhMA-HNILpENWTjf7T-2" value="&lt;b&gt;&lt;font style=&quot;font-size: 10px;&quot;&gt;TRAIN&lt;/font&gt;&lt;/b&gt;" style="rounded=0;whiteSpace=wrap;html=1;fillColor=#dae8fc;strokeColor=#6c8ebf;" vertex="1" parent="1">
          <mxGeometry x="200" y="550" width="130" height="40" as="geometry" />
        </mxCell>
        <mxCell id="lEyhMA-HNILpENWTjf7T-17" style="edgeStyle=orthogonalEdgeStyle;rounded=0;orthogonalLoop=1;jettySize=auto;html=1;entryX=0.5;entryY=0;entryDx=0;entryDy=0;fillColor=#d5e8d4;strokeColor=#82b366;" edge="1" parent="1" source="lEyhMA-HNILpENWTjf7T-3" target="lEyhMA-HNILpENWTjf7T-12">
          <mxGeometry relative="1" as="geometry" />
        </mxCell>
        <mxCell id="lEyhMA-HNILpENWTjf7T-3" value="&lt;b&gt;&lt;font style=&quot;font-size: 9px;&quot;&gt;VALIDATION&lt;/font&gt;&lt;/b&gt;" style="rounded=0;whiteSpace=wrap;html=1;fillColor=#d5e8d4;strokeColor=#82b366;align=center;" vertex="1" parent="1">
          <mxGeometry x="355" y="550" width="70" height="30" as="geometry" />
        </mxCell>
        <mxCell id="lEyhMA-HNILpENWTjf7T-19" style="edgeStyle=orthogonalEdgeStyle;rounded=0;orthogonalLoop=1;jettySize=auto;html=1;entryX=0.5;entryY=0;entryDx=0;entryDy=0;" edge="1" parent="1" source="lEyhMA-HNILpENWTjf7T-4" target="lEyhMA-HNILpENWTjf7T-9">
          <mxGeometry relative="1" as="geometry" />
        </mxCell>
        <mxCell id="lEyhMA-HNILpENWTjf7T-4" value="&lt;b&gt;&lt;font style=&quot;font-size: 9px;&quot; face=&quot;Helvetica&quot;&gt;CALIBRATION&lt;/font&gt;&lt;/b&gt;" style="rounded=0;whiteSpace=wrap;html=1;fillColor=#e1d5e7;strokeColor=#9673a6;" vertex="1" parent="1">
          <mxGeometry x="448" y="550" width="70" height="30" as="geometry" />
        </mxCell>
        <mxCell id="lEyhMA-HNILpENWTjf7T-8" style="edgeStyle=orthogonalEdgeStyle;rounded=0;orthogonalLoop=1;jettySize=auto;html=1;entryX=0;entryY=0.5;entryDx=0;entryDy=0;" edge="1" parent="1" source="lEyhMA-HNILpENWTjf7T-5" target="lEyhMA-HNILpENWTjf7T-7">
          <mxGeometry relative="1" as="geometry">
            <Array as="points">
              <mxPoint x="130" y="680" />
            </Array>
          </mxGeometry>
        </mxCell>
        <mxCell id="lEyhMA-HNILpENWTjf7T-5" value="Pretrained&amp;nbsp;&lt;br&gt;model" style="rounded=1;whiteSpace=wrap;html=1;" vertex="1" parent="1">
          <mxGeometry x="80" y="595" width="100" height="50" as="geometry" />
        </mxCell>
        <mxCell id="lEyhMA-HNILpENWTjf7T-13" style="edgeStyle=orthogonalEdgeStyle;rounded=0;orthogonalLoop=1;jettySize=auto;html=1;entryX=0.5;entryY=1;entryDx=0;entryDy=0;" edge="1" parent="1" source="lEyhMA-HNILpENWTjf7T-7" target="lEyhMA-HNILpENWTjf7T-12">
          <mxGeometry relative="1" as="geometry">
            <Array as="points">
              <mxPoint x="390" y="670" />
            </Array>
          </mxGeometry>
        </mxCell>
        <mxCell id="lEyhMA-HNILpENWTjf7T-18" style="edgeStyle=orthogonalEdgeStyle;rounded=0;orthogonalLoop=1;jettySize=auto;html=1;" edge="1" parent="1" source="lEyhMA-HNILpENWTjf7T-7" target="lEyhMA-HNILpENWTjf7T-9">
          <mxGeometry relative="1" as="geometry">
            <mxPoint x="390" y="750" as="targetPoint" />
            <Array as="points">
              <mxPoint x="265" y="740" />
            </Array>
          </mxGeometry>
        </mxCell>
        <mxCell id="lEyhMA-HNILpENWTjf7T-21" style="edgeStyle=orthogonalEdgeStyle;rounded=0;orthogonalLoop=1;jettySize=auto;html=1;entryX=0;entryY=0.5;entryDx=0;entryDy=0;" edge="1" parent="1" source="lEyhMA-HNILpENWTjf7T-7" target="lEyhMA-HNILpENWTjf7T-10">
          <mxGeometry relative="1" as="geometry">
            <mxPoint x="570" y="680" as="targetPoint" />
          </mxGeometry>
        </mxCell>
        <mxCell id="lEyhMA-HNILpENWTjf7T-7" value="Train model" style="rounded=1;whiteSpace=wrap;html=1;" vertex="1" parent="1">
          <mxGeometry x="205" y="655" width="120" height="50" as="geometry" />
        </mxCell>
        <mxCell id="lEyhMA-HNILpENWTjf7T-22" style="edgeStyle=orthogonalEdgeStyle;rounded=0;orthogonalLoop=1;jettySize=auto;html=1;entryX=0;entryY=0.5;entryDx=0;entryDy=0;" edge="1" parent="1" source="lEyhMA-HNILpENWTjf7T-9" target="lEyhMA-HNILpENWTjf7T-11">
          <mxGeometry relative="1" as="geometry" />
        </mxCell>
        <mxCell id="lEyhMA-HNILpENWTjf7T-9" value="&lt;font style=&quot;font-size: 11px;&quot;&gt;Compute&lt;br&gt;Conformal&lt;br&gt;Scores&lt;/font&gt;" style="rounded=1;whiteSpace=wrap;html=1;" vertex="1" parent="1">
          <mxGeometry x="433" y="712.5" width="100" height="55" as="geometry" />
        </mxCell>
        <mxCell id="lEyhMA-HNILpENWTjf7T-10" value="&lt;font style=&quot;font-size: 10px;&quot;&gt;Estimate predictions&lt;/font&gt;" style="rounded=1;whiteSpace=wrap;html=1;" vertex="1" parent="1">
          <mxGeometry x="585" y="655" width="90" height="50" as="geometry" />
        </mxCell>
        <mxCell id="lEyhMA-HNILpENWTjf7T-11" value="&lt;font style=&quot;font-size: 10px;&quot;&gt;Estimate prediction&amp;nbsp;&lt;br&gt;sets/intervals with&amp;nbsp;&lt;br&gt;alpha quantile&lt;/font&gt;" style="rounded=1;whiteSpace=wrap;html=1;" vertex="1" parent="1">
          <mxGeometry x="570" y="710" width="120" height="60" as="geometry" />
        </mxCell>
        <mxCell id="lEyhMA-HNILpENWTjf7T-12" value="Validate" style="rounded=1;whiteSpace=wrap;html=1;" vertex="1" parent="1">
          <mxGeometry x="350" y="600" width="80" height="40" as="geometry" />
        </mxCell>
        <mxCell id="lEyhMA-HNILpENWTjf7T-16" style="edgeStyle=orthogonalEdgeStyle;rounded=0;orthogonalLoop=1;jettySize=auto;html=1;fillColor=#dae8fc;strokeColor=#6c8ebf;" edge="1" parent="1" source="lEyhMA-HNILpENWTjf7T-2">
          <mxGeometry relative="1" as="geometry">
            <mxPoint x="250" y="654" as="targetPoint" />
            <Array as="points">
              <mxPoint x="250" y="654" />
            </Array>
          </mxGeometry>
        </mxCell>
        <mxCell id="lEyhMA-HNILpENWTjf7T-20" style="edgeStyle=orthogonalEdgeStyle;rounded=0;orthogonalLoop=1;jettySize=auto;html=1;entryX=0.622;entryY=-0.012;entryDx=0;entryDy=0;entryPerimeter=0;" edge="1" parent="1" source="lEyhMA-HNILpENWTjf7T-12" target="lEyhMA-HNILpENWTjf7T-7">
          <mxGeometry relative="1" as="geometry" />
        </mxCell>
        <mxCell id="lEyhMA-HNILpENWTjf7T-23" value="&lt;font style=&quot;font-size: 11px;&quot;&gt;Metrics&lt;/font&gt;" style="rounded=1;whiteSpace=wrap;html=1;" vertex="1" parent="1">
          <mxGeometry x="750" y="615" width="79.5" height="40" as="geometry" />
        </mxCell>
        <mxCell id="lEyhMA-HNILpENWTjf7T-24" value="&lt;b&gt;&lt;font face=&quot;Helvetica&quot;&gt;TEST&lt;/font&gt;&lt;/b&gt;" style="rounded=0;whiteSpace=wrap;html=1;fillColor=#f8cecc;strokeColor=#b85450;" vertex="1" parent="1">
          <mxGeometry x="590.5" y="840" width="79" height="30" as="geometry" />
        </mxCell>
        <mxCell id="lEyhMA-HNILpENWTjf7T-25" value="&lt;b&gt;&lt;font style=&quot;font-size: 10px;&quot;&gt;TRAIN&lt;/font&gt;&lt;/b&gt;" style="rounded=0;whiteSpace=wrap;html=1;fillColor=#dae8fc;strokeColor=#6c8ebf;" vertex="1" parent="1">
          <mxGeometry x="200" y="840" width="130" height="40" as="geometry" />
        </mxCell>
        <mxCell id="lEyhMA-HNILpENWTjf7T-26" style="edgeStyle=orthogonalEdgeStyle;rounded=0;orthogonalLoop=1;jettySize=auto;html=1;entryX=0.5;entryY=0;entryDx=0;entryDy=0;fillColor=#d5e8d4;strokeColor=#82b366;" edge="1" parent="1" source="lEyhMA-HNILpENWTjf7T-27" target="lEyhMA-HNILpENWTjf7T-40">
          <mxGeometry relative="1" as="geometry" />
        </mxCell>
        <mxCell id="lEyhMA-HNILpENWTjf7T-27" value="&lt;b&gt;&lt;font style=&quot;font-size: 9px;&quot;&gt;VALIDATION&lt;/font&gt;&lt;/b&gt;" style="rounded=0;whiteSpace=wrap;html=1;fillColor=#d5e8d4;strokeColor=#82b366;align=center;" vertex="1" parent="1">
          <mxGeometry x="355" y="840" width="70" height="30" as="geometry" />
        </mxCell>
        <mxCell id="lEyhMA-HNILpENWTjf7T-28" style="edgeStyle=orthogonalEdgeStyle;rounded=0;orthogonalLoop=1;jettySize=auto;html=1;entryX=0.5;entryY=0;entryDx=0;entryDy=0;" edge="1" parent="1" source="lEyhMA-HNILpENWTjf7T-29" target="lEyhMA-HNILpENWTjf7T-37">
          <mxGeometry relative="1" as="geometry" />
        </mxCell>
        <mxCell id="lEyhMA-HNILpENWTjf7T-29" value="&lt;b&gt;&lt;font style=&quot;font-size: 9px;&quot; face=&quot;Helvetica&quot;&gt;CALIBRATION&lt;/font&gt;&lt;/b&gt;" style="rounded=0;whiteSpace=wrap;html=1;fillColor=#e1d5e7;strokeColor=#9673a6;" vertex="1" parent="1">
          <mxGeometry x="448" y="840" width="70" height="30" as="geometry" />
        </mxCell>
        <mxCell id="lEyhMA-HNILpENWTjf7T-30" style="edgeStyle=orthogonalEdgeStyle;rounded=0;orthogonalLoop=1;jettySize=auto;html=1;entryX=0;entryY=0.5;entryDx=0;entryDy=0;" edge="1" parent="1" source="lEyhMA-HNILpENWTjf7T-31" target="lEyhMA-HNILpENWTjf7T-35">
          <mxGeometry relative="1" as="geometry">
            <Array as="points">
              <mxPoint x="130" y="970" />
            </Array>
          </mxGeometry>
        </mxCell>
        <mxCell id="lEyhMA-HNILpENWTjf7T-31" value="Pretrained&amp;nbsp;&lt;br&gt;model" style="rounded=1;whiteSpace=wrap;html=1;" vertex="1" parent="1">
          <mxGeometry x="80" y="885" width="100" height="50" as="geometry" />
        </mxCell>
        <mxCell id="lEyhMA-HNILpENWTjf7T-32" style="edgeStyle=orthogonalEdgeStyle;rounded=0;orthogonalLoop=1;jettySize=auto;html=1;entryX=0.5;entryY=1;entryDx=0;entryDy=0;" edge="1" parent="1" source="lEyhMA-HNILpENWTjf7T-35" target="lEyhMA-HNILpENWTjf7T-40">
          <mxGeometry relative="1" as="geometry">
            <Array as="points">
              <mxPoint x="390" y="960" />
            </Array>
          </mxGeometry>
        </mxCell>
        <mxCell id="lEyhMA-HNILpENWTjf7T-33" style="edgeStyle=orthogonalEdgeStyle;rounded=0;orthogonalLoop=1;jettySize=auto;html=1;" edge="1" parent="1" source="lEyhMA-HNILpENWTjf7T-35" target="lEyhMA-HNILpENWTjf7T-37">
          <mxGeometry relative="1" as="geometry">
            <mxPoint x="390" y="1040" as="targetPoint" />
            <Array as="points">
              <mxPoint x="265" y="1030" />
            </Array>
          </mxGeometry>
        </mxCell>
        <mxCell id="lEyhMA-HNILpENWTjf7T-34" style="edgeStyle=orthogonalEdgeStyle;rounded=0;orthogonalLoop=1;jettySize=auto;html=1;entryX=0;entryY=0.5;entryDx=0;entryDy=0;" edge="1" parent="1" source="lEyhMA-HNILpENWTjf7T-35" target="lEyhMA-HNILpENWTjf7T-38">
          <mxGeometry relative="1" as="geometry">
            <mxPoint x="570" y="970" as="targetPoint" />
          </mxGeometry>
        </mxCell>
        <mxCell id="lEyhMA-HNILpENWTjf7T-35" value="Train model" style="rounded=1;whiteSpace=wrap;html=1;" vertex="1" parent="1">
          <mxGeometry x="205" y="945" width="120" height="50" as="geometry" />
        </mxCell>
        <mxCell id="lEyhMA-HNILpENWTjf7T-36" style="edgeStyle=orthogonalEdgeStyle;rounded=0;orthogonalLoop=1;jettySize=auto;html=1;entryX=0;entryY=0.5;entryDx=0;entryDy=0;" edge="1" parent="1" source="lEyhMA-HNILpENWTjf7T-37" target="lEyhMA-HNILpENWTjf7T-39">
          <mxGeometry relative="1" as="geometry" />
        </mxCell>
        <mxCell id="lEyhMA-HNILpENWTjf7T-37" value="&lt;font style=&quot;font-size: 11px;&quot;&gt;Compute&lt;br&gt;Conformal&lt;br&gt;Scores&lt;/font&gt;" style="rounded=1;whiteSpace=wrap;html=1;" vertex="1" parent="1">
          <mxGeometry x="433" y="1002.5" width="100" height="55" as="geometry" />
        </mxCell>
        <mxCell id="lEyhMA-HNILpENWTjf7T-38" value="&lt;font style=&quot;font-size: 10px;&quot;&gt;Estimate predictions&lt;/font&gt;" style="rounded=1;whiteSpace=wrap;html=1;" vertex="1" parent="1">
          <mxGeometry x="585" y="945" width="90" height="50" as="geometry" />
        </mxCell>
        <mxCell id="lEyhMA-HNILpENWTjf7T-39" value="&lt;font style=&quot;font-size: 10px;&quot;&gt;Estimate prediction&amp;nbsp;&lt;br&gt;sets/intervals with&amp;nbsp;&lt;br&gt;alpha quantile&lt;/font&gt;" style="rounded=1;whiteSpace=wrap;html=1;" vertex="1" parent="1">
          <mxGeometry x="570" y="1000" width="120" height="60" as="geometry" />
        </mxCell>
        <mxCell id="lEyhMA-HNILpENWTjf7T-40" value="Inference" style="rounded=1;whiteSpace=wrap;html=1;" vertex="1" parent="1">
          <mxGeometry x="350" y="890" width="80" height="40" as="geometry" />
        </mxCell>
        <mxCell id="lEyhMA-HNILpENWTjf7T-41" style="edgeStyle=orthogonalEdgeStyle;rounded=0;orthogonalLoop=1;jettySize=auto;html=1;fillColor=#dae8fc;strokeColor=#6c8ebf;" edge="1" parent="1" source="lEyhMA-HNILpENWTjf7T-25">
          <mxGeometry relative="1" as="geometry">
            <mxPoint x="250" y="944" as="targetPoint" />
            <Array as="points">
              <mxPoint x="250" y="944" />
            </Array>
          </mxGeometry>
        </mxCell>
        <mxCell id="lEyhMA-HNILpENWTjf7T-42" style="edgeStyle=orthogonalEdgeStyle;rounded=0;orthogonalLoop=1;jettySize=auto;html=1;entryX=0.622;entryY=-0.012;entryDx=0;entryDy=0;entryPerimeter=0;" edge="1" parent="1" source="lEyhMA-HNILpENWTjf7T-40" target="lEyhMA-HNILpENWTjf7T-35">
          <mxGeometry relative="1" as="geometry" />
        </mxCell>
        <mxCell id="lEyhMA-HNILpENWTjf7T-43" value="&lt;font style=&quot;font-size: 11px;&quot;&gt;Metrics&lt;/font&gt;" style="rounded=1;whiteSpace=wrap;html=1;" vertex="1" parent="1">
          <mxGeometry x="750" y="905" width="79.5" height="40" as="geometry" />
        </mxCell>
        <mxCell id="lEyhMA-HNILpENWTjf7T-46" value="&lt;font style=&quot;font-size: 11px;&quot;&gt;TRAINING&lt;/font&gt;" style="rounded=0;whiteSpace=wrap;html=1;fillColor=#f5f5f5;strokeColor=#666666;fontColor=#333333;" vertex="1" parent="1">
          <mxGeometry x="200" y="1260" width="160" height="20" as="geometry" />
        </mxCell>
        <mxCell id="lEyhMA-HNILpENWTjf7T-47" value="VALIDATION" style="rounded=0;whiteSpace=wrap;html=1;fillColor=#f5f5f5;strokeColor=#666666;fontColor=#333333;" vertex="1" parent="1">
          <mxGeometry x="370" y="1260" width="160" height="20" as="geometry" />
        </mxCell>
        <mxCell id="lEyhMA-HNILpENWTjf7T-48" value="CALIBRATION" style="rounded=0;whiteSpace=wrap;html=1;fillColor=#f5f5f5;strokeColor=#666666;fontColor=#333333;" vertex="1" parent="1">
          <mxGeometry x="540" y="1260" width="160" height="20" as="geometry" />
        </mxCell>
        <mxCell id="lEyhMA-HNILpENWTjf7T-49" value="TESTING" style="rounded=0;whiteSpace=wrap;html=1;fillColor=#f5f5f5;strokeColor=#666666;fontColor=#333333;" vertex="1" parent="1">
          <mxGeometry x="709.75" y="1260" width="160" height="20" as="geometry" />
        </mxCell>
        <mxCell id="lEyhMA-HNILpENWTjf7T-63" style="edgeStyle=orthogonalEdgeStyle;rounded=0;orthogonalLoop=1;jettySize=auto;html=1;entryX=0;entryY=0.5;entryDx=0;entryDy=0;" edge="1" parent="1" source="lEyhMA-HNILpENWTjf7T-50" target="lEyhMA-HNILpENWTjf7T-56">
          <mxGeometry relative="1" as="geometry" />
        </mxCell>
        <mxCell id="lEyhMA-HNILpENWTjf7T-50" value="PRETRAINED MODEL" style="rounded=1;whiteSpace=wrap;html=1;" vertex="1" parent="1">
          <mxGeometry x="70" y="1330" width="100" height="50" as="geometry" />
        </mxCell>
        <mxCell id="lEyhMA-HNILpENWTjf7T-51" value="&lt;b&gt;&lt;font style=&quot;font-size: 10px;&quot;&gt;TRAIN&lt;/font&gt;&lt;/b&gt;" style="rounded=0;whiteSpace=wrap;html=1;fillColor=#dae8fc;strokeColor=#6c8ebf;" vertex="1" parent="1">
          <mxGeometry x="210" y="1280" width="140" height="30" as="geometry" />
        </mxCell>
        <mxCell id="lEyhMA-HNILpENWTjf7T-52" value="&lt;font style=&quot;font-size: 10px;&quot;&gt;&lt;b&gt;&lt;font&gt;VALIDATION&lt;/font&gt;&lt;/b&gt;&lt;/font&gt;" style="rounded=0;whiteSpace=wrap;html=1;fillColor=#d5e8d4;strokeColor=#82b366;align=center;" vertex="1" parent="1">
          <mxGeometry x="410" y="1280" width="80" height="30" as="geometry" />
        </mxCell>
        <mxCell id="lEyhMA-HNILpENWTjf7T-53" value="&lt;font style=&quot;font-size: 10px;&quot;&gt;&lt;b&gt;&lt;font face=&quot;Helvetica&quot;&gt;CALIBRATION&lt;/font&gt;&lt;/b&gt;&lt;/font&gt;" style="rounded=0;whiteSpace=wrap;html=1;fillColor=#e1d5e7;strokeColor=#9673a6;" vertex="1" parent="1">
          <mxGeometry x="580" y="1280" width="80" height="30" as="geometry" />
        </mxCell>
        <mxCell id="lEyhMA-HNILpENWTjf7T-55" value="&lt;b&gt;&lt;font face=&quot;Helvetica&quot;&gt;TEST&lt;/font&gt;&lt;/b&gt;" style="rounded=0;whiteSpace=wrap;html=1;fillColor=#f8cecc;strokeColor=#b85450;" vertex="1" parent="1">
          <mxGeometry x="740" y="1280" width="100" height="30" as="geometry" />
        </mxCell>
        <mxCell id="lEyhMA-HNILpENWTjf7T-58" style="edgeStyle=orthogonalEdgeStyle;rounded=0;orthogonalLoop=1;jettySize=auto;html=1;entryX=0;entryY=0.5;entryDx=0;entryDy=0;" edge="1" parent="1" source="lEyhMA-HNILpENWTjf7T-56" target="lEyhMA-HNILpENWTjf7T-61">
          <mxGeometry relative="1" as="geometry">
            <mxPoint x="490" y="1355" as="targetPoint" />
          </mxGeometry>
        </mxCell>
        <mxCell id="lEyhMA-HNILpENWTjf7T-59" value="Inference" style="edgeLabel;html=1;align=center;verticalAlign=middle;resizable=0;points=[];" vertex="1" connectable="0" parent="lEyhMA-HNILpENWTjf7T-58">
          <mxGeometry x="0.2371" relative="1" as="geometry">
            <mxPoint x="-10" y="-9" as="offset" />
          </mxGeometry>
        </mxCell>
        <mxCell id="lEyhMA-HNILpENWTjf7T-56" value="Train model" style="rounded=1;whiteSpace=wrap;html=1;" vertex="1" parent="1">
          <mxGeometry x="220.09" y="1330" width="120" height="50" as="geometry" />
        </mxCell>
        <mxCell id="lEyhMA-HNILpENWTjf7T-62" style="edgeStyle=orthogonalEdgeStyle;rounded=0;orthogonalLoop=1;jettySize=auto;html=1;entryX=0.5;entryY=1;entryDx=0;entryDy=0;" edge="1" parent="1" source="lEyhMA-HNILpENWTjf7T-61" target="lEyhMA-HNILpENWTjf7T-56">
          <mxGeometry relative="1" as="geometry">
            <Array as="points">
              <mxPoint x="450" y="1400" />
              <mxPoint x="280" y="1400" />
            </Array>
          </mxGeometry>
        </mxCell>
        <mxCell id="lEyhMA-HNILpENWTjf7T-61" value="Validate" style="rounded=1;whiteSpace=wrap;html=1;" vertex="1" parent="1">
          <mxGeometry x="410" y="1335" width="80" height="40" as="geometry" />
        </mxCell>
        <mxCell id="lEyhMA-HNILpENWTjf7T-64" value="&lt;font style=&quot;font-size: 11px;&quot;&gt;Compute&lt;br&gt;Conformal&lt;br&gt;Scores&lt;/font&gt;" style="rounded=1;whiteSpace=wrap;html=1;" vertex="1" parent="1">
          <mxGeometry x="569.5" y="1330" width="100" height="55" as="geometry" />
        </mxCell>
      </root>
    </mxGraphModel>
  </diagram>
</mxfile>
